<svg width="19" height="20" viewBox="0 0 19 20" fill="none" xmlns="http://www.w3.org/2000/svg">
<path fill-rule="evenodd" clip-rule="evenodd" d="M5.45921 4.763V3.75C5.45921 2.75544 5.8543 1.80161 6.55756 1.09835C7.26082 0.395088 8.21465 0 9.20921 0C10.2038 0 11.1576 0.395088 11.8609 1.09835C12.5641 1.80161 12.9592 2.75544 12.9592 3.75V4.763C14.2562 4.8 15.0462 4.933 15.6512 5.43C16.4812 6.11 16.7112 7.264 17.1742 9.573L17.7742 12.573C18.4382 15.893 18.7702 17.553 17.8702 18.652C16.9692 19.75 15.2762 19.75 11.8892 19.75H6.52921C3.14321 19.75 1.44921 19.75 0.549208 18.652C-0.350792 17.554 -0.0187918 15.894 0.645208 12.573L1.24521 9.573C1.70721 7.264 1.93821 6.11 2.76721 5.43C3.37321 4.934 4.16321 4.8 5.46021 4.763M6.95921 3.75C6.95921 3.15326 7.19626 2.58097 7.61822 2.15901C8.04017 1.73705 8.61247 1.5 9.20921 1.5C9.80595 1.5 10.3782 1.73705 10.8002 2.15901C11.2222 2.58097 11.4592 3.15326 11.4592 3.75V4.75H6.95921V3.75ZM12.2092 8.75C12.4744 8.75 12.7288 8.64464 12.9163 8.45711C13.1039 8.26957 13.2092 8.01522 13.2092 7.75C13.2092 7.48478 13.1039 7.23043 12.9163 7.04289C12.7288 6.85536 12.4744 6.75 12.2092 6.75C11.944 6.75 11.6896 6.85536 11.5021 7.04289C11.3146 7.23043 11.2092 7.48478 11.2092 7.75C11.2092 8.01522 11.3146 8.26957 11.5021 8.45711C11.6896 8.64464 11.944 8.75 12.2092 8.75ZM7.20921 7.75C7.20921 8.01522 7.10385 8.26957 6.91631 8.45711C6.72878 8.64464 6.47442 8.75 6.20921 8.75C5.94399 8.75 5.68964 8.64464 5.5021 8.45711C5.31457 8.26957 5.20921 8.01522 5.20921 7.75C5.20921 7.48478 5.31457 7.23043 5.5021 7.04289C5.68964 6.85536 5.94399 6.75 6.20921 6.75C6.47442 6.75 6.72878 6.85536 6.91631 7.04289C7.10385 7.23043 7.20921 7.48478 7.20921 7.75Z" fill="black"/>
</svg>
