<svg width="30" height="27" viewBox="0 0 30 27" fill="none" xmlns="http://www.w3.org/2000/svg">
<path d="M27.5063 15.8899L29.9684 4.92112C30.1462 4.12915 29.5516 3.375 28.7495 3.375H8.29208L7.81469 1.01197C7.69573 0.422982 7.18386 0 6.59005 0H1.25C0.559636 0 0 0.566631 0 1.26562V2.10938C0 2.80837 0.559636 3.375 1.25 3.375H4.88974L8.54849 21.4858C7.67318 21.9955 7.08333 22.9512 7.08333 24.0469C7.08333 25.6778 8.38917 27 10 27C11.6108 27 12.9167 25.6778 12.9167 24.0469C12.9167 23.2203 12.5809 22.4735 12.0404 21.9375H22.9595C22.4191 22.4735 22.0833 23.2203 22.0833 24.0469C22.0833 25.6778 23.3892 27 25 27C26.6108 27 27.9167 25.6778 27.9167 24.0469C27.9167 22.8776 27.2454 21.8673 26.2719 21.3888L26.5593 20.1086C26.737 19.3167 26.1425 18.5625 25.3404 18.5625H11.3603L11.0194 16.875H26.2873C26.871 16.875 27.3769 16.4661 27.5063 15.8899Z" fill="#D5D5D5"/>
</svg>
