<svg width="32" height="30" viewBox="0 0 32 30" fill="none" xmlns="http://www.w3.org/2000/svg">
<path d="M15.9999 29.4299C15.7789 29.4293 15.5644 29.3554 15.3899 29.2199C9.82987 24.8999 5.99987 21.1799 3.31987 17.5099C-0.100133 12.8199 -0.880133 8.48995 0.999867 4.63995C2.33987 1.88995 6.18987 -0.360052 10.6899 0.949948C12.8354 1.56969 14.7074 2.89873 15.9999 4.71995C17.2924 2.89873 19.1643 1.56969 21.3099 0.949948C25.7999 -0.340052 29.6599 1.88995 30.9999 4.63995C32.8799 8.48995 32.0999 12.8199 28.6799 17.5099C25.9999 21.1799 22.1699 24.8999 16.6099 29.2199C16.4353 29.3554 16.2208 29.4293 15.9999 29.4299ZM8.12987 2.57995C7.05912 2.53828 5.99724 2.789 5.05821 3.3052C4.11918 3.8214 3.33847 4.58359 2.79987 5.50995C1.24987 8.68995 1.94987 12.2299 4.93987 16.3199C8.11744 20.4185 11.8383 24.0654 15.9999 27.1599C20.1608 24.0684 23.8816 20.425 27.0599 16.3299C30.0599 12.2299 30.7499 8.68995 29.1999 5.51995C28.1999 3.51995 25.1999 1.92995 21.8599 2.86995C20.7889 3.18645 19.7961 3.72367 18.9453 4.44702C18.0945 5.17038 17.4045 6.06386 16.9199 7.06995C16.8445 7.25336 16.7164 7.41023 16.5517 7.52063C16.387 7.63104 16.1932 7.68998 15.9949 7.68998C15.7966 7.68998 15.6028 7.63104 15.4381 7.52063C15.2734 7.41023 15.1452 7.25336 15.0699 7.06995C14.5888 6.06134 13.9001 5.16578 13.0488 4.44197C12.1974 3.71816 11.2027 3.18245 10.1299 2.86995C9.47984 2.68115 8.80675 2.58355 8.12987 2.57995Z" fill="#D5D5D5"/>
</svg>
