<svg width="34" height="34" viewBox="0 0 34 34" fill="none" xmlns="http://www.w3.org/2000/svg">
<g clip-path="url(#clip0_12_7)">
<path d="M11.3335 12.4667C11.3335 10.9638 11.9305 9.52248 12.9932 8.45978C14.0559 7.39707 15.4973 6.80005 17.0002 6.80005C18.5031 6.80005 19.9444 7.39707 21.0071 8.45978C22.0698 9.52248 22.6668 10.9638 22.6668 12.4667C22.6668 13.9696 22.0698 15.4109 21.0071 16.4737C19.9444 17.5364 18.5031 18.1334 17.0002 18.1334C15.4973 18.1334 14.0559 17.5364 12.9932 16.4737C11.9305 15.4109 11.3335 13.9696 11.3335 12.4667Z" fill="#CACACA" fill-opacity="0.74"/>
<path fill-rule="evenodd" clip-rule="evenodd" d="M17 0C12.4913 0 8.1673 1.79107 4.97918 4.97918C1.79107 8.1673 0 12.4913 0 17C0 21.5087 1.79107 25.8327 4.97918 29.0208C8.1673 32.2089 12.4913 34 17 34C21.5087 34 25.8327 32.2089 29.0208 29.0208C32.2089 25.8327 34 21.5087 34 17C34 12.4913 32.2089 8.1673 29.0208 4.97918C25.8327 1.79107 21.5087 0 17 0ZM2.26667 17C2.2667 14.5626 2.87145 12.1633 4.02671 10.017C5.18198 7.87081 6.85166 6.04471 8.88615 4.7024C10.9206 3.36009 13.2564 2.54349 15.684 2.32578C18.1117 2.10808 20.5554 2.49606 22.7963 3.45497C25.0372 4.41388 27.0051 5.91376 28.5238 7.8202C30.0425 9.72664 31.0645 11.9801 31.4982 14.3786C31.9319 16.7771 31.7638 19.2457 31.0089 21.5633C30.254 23.8809 28.9359 25.9749 27.1728 27.6579C27.0036 25.6777 26.0973 23.8331 24.6333 22.4891C23.1692 21.1451 21.2541 20.3996 19.2667 20.4H14.7333C12.7459 20.3996 10.8308 21.1451 9.36673 22.4891C7.90269 23.8331 6.99641 25.6777 6.8272 27.6579C5.38394 26.2835 4.23537 24.63 3.45135 22.7977C2.66734 20.9655 2.26427 18.9929 2.26667 17Z" fill="#CACACA" fill-opacity="0.74"/>
</g>
<defs>
<clipPath id="clip0_12_7">
<rect width="34" height="34" fill="white"/>
</clipPath>
</defs>
</svg>
